HIERARCHY
ROOT hips
{
	OFFSET -0.003675 0.299928 -0.021708
	CHANNELS 6 Xposition Yposition Zposition Xrotation Yrotation Zrotation
	JOINT LowerBack
	{
		OFFSET 0.000919 0.177588 0.009275
		CHANNELS 3 Xrotation Yrotation Zrotation
		JOINT spine
		{
			OFFSET 0.000919 0.177588 0.009275
			CHANNELS 3 Xrotation Yrotation Zrotation
			JOINT chest
			{
				OFFSET 0.000456 0.100015 0.004638
				CHANNELS 3 Xrotation Yrotation Zrotation
				JOINT neck
				{
					OFFSET 0.000456 0.100015 0.004638
					CHANNELS 3 Xrotation Yrotation Zrotation
					JOINT head
					{
						OFFSET 0.000924 0.155147 0.009274
						CHANNELS 6 Xposition Yposition Zposition Xrotation Yrotation Zrotation
						End Site
						{
							OFFSET 0.000000 0.153400 0.000000
						}
					}
				}
				JOINT shoulder.L
				{
					OFFSET 0.019937 0.078966 0.057518
					CHANNELS 6 Xposition Yposition Zposition Yrotation Xrotation Zrotation
					JOINT upper_arm.L
					{
						OFFSET 0.177024 -0.020465 -0.095062
						CHANNELS 6 Xposition Yposition Zposition Xrotation Yrotation Zrotation
						JOINT forearm.L
						{
							OFFSET 0.247100 -0.135500 -0.061800
							CHANNELS 3 Xrotation Yrotation Zrotation
							JOINT hand.L
							{
								OFFSET 0.217000 -0.143000 0.039300
								CHANNELS 3 Xrotation Yrotation Zrotation
								JOINT palm.01.L
								{
									OFFSET 0.021770 -0.038291 0.012954
									CHANNELS 6 Xposition Yposition Zposition Yrotation Xrotation Zrotation
									JOINT f_index.01.L
									{
										OFFSET 0.053215 -0.044137 0.008236
										CHANNELS 3 Xrotation Yrotation Zrotation
										JOINT f_index.02.L
										{
											OFFSET 0.036108 -0.024723 -0.010656
											CHANNELS 3 Xrotation Yrotation Zrotation
											JOINT f_index.03.L
											{
												OFFSET 0.021342 -0.014948 -0.010846
												CHANNELS 3 Xrotation Yrotation Zrotation
												End Site
												{
													OFFSET 0.015600 -0.009860 -0.013421
												}
											}
										}
									}
									JOINT thumb.01.L
									{
										OFFSET -0.009090 -0.002348 -0.024223
										CHANNELS 6 Xposition Yposition Zposition Xrotation Yrotation Zrotation
										JOINT thumb.02.L
										{
											OFFSET 0.019713 -0.035076 -0.011120
											CHANNELS 3 Xrotation Yrotation Zrotation
											JOINT thumb.03.L
											{
												OFFSET 0.024877 -0.021748 -0.005176
												CHANNELS 3 Xrotation Yrotation Zrotation
												End Site
												{
													OFFSET 0.016125 -0.013029 -0.001569
												}
											}
										}
									}
								}
								JOINT palm.02.L
								{
									OFFSET 0.032823 -0.025104 0.012281
									CHANNELS 6 Xposition Yposition Zposition Yrotation Xrotation Zrotation
									JOINT f_middle.01.L
									{
										OFFSET 0.055723 -0.038469 0.008037
										CHANNELS 3 Xrotation Yrotation Zrotation
										JOINT f_middle.02.L
										{
											OFFSET 0.038167 -0.027473 -0.015582
											CHANNELS 3 Xrotation Yrotation Zrotation
											JOINT f_middle.03.L
											{
												OFFSET 0.021707 -0.016587 -0.017037
												CHANNELS 3 Xrotation Yrotation Zrotation
												End Site
												{
													OFFSET 0.014112 -0.010584 -0.014294
												}
											}
										}
									}
								}
								JOINT palm.03.L
								{
									OFFSET 0.039230 -0.011402 0.008390
									CHANNELS 6 Xposition Yposition Zposition Yrotation Xrotation Zrotation
									JOINT f_ring.01.L
									{
										OFFSET 0.061796 -0.031470 0.007910
										CHANNELS 3 Xrotation Yrotation Zrotation
										JOINT f_ring.02.L
										{
											OFFSET 0.033092 -0.023401 -0.019127
											CHANNELS 3 Xrotation Yrotation Zrotation
											JOINT f_ring.03.L
											{
												OFFSET 0.021392 -0.015362 -0.017824
												CHANNELS 3 Xrotation Yrotation Zrotation
												End Site
												{
													OFFSET 0.008670 -0.007297 -0.014686
												}
											}
										}
									}
								}
								JOINT palm.04.L
								{
									OFFSET 0.043417 0.002450 0.002889
									CHANNELS 6 Xposition Yposition Zposition Yrotation Xrotation Zrotation
									JOINT f_pinky.01.L
									{
										OFFSET 0.069986 -0.026156 0.003627
										CHANNELS 3 Xrotation Yrotation Zrotation
										JOINT f_pinky.02.L
										{
											OFFSET 0.018520 -0.012813 -0.016429
											CHANNELS 3 Xrotation Yrotation Zrotation
											JOINT f_pinky.03.L
											{
												OFFSET 0.013822 -0.009796 -0.014947
												CHANNELS 3 Xrotation Yrotation Zrotation
												End Site
												{
													OFFSET 0.007238 -0.006103 -0.011657
												}
											}
										}
									}
								}
							}
						}
					}
				}
				JOINT shoulder.R
				{
					OFFSET -0.016662 0.078957 0.057696
					CHANNELS 6 Xposition Yposition Zposition Yrotation Xrotation Zrotation
					JOINT upper_arm.R
					{
						OFFSET -0.176972 -0.020537 -0.095144
						CHANNELS 6 Xposition Yposition Zposition Xrotation Yrotation Zrotation
						JOINT forearm.R
						{
							OFFSET -0.247100 -0.135500 -0.061800
							CHANNELS 3 Xrotation Yrotation Zrotation
							JOINT hand.R
							{
								OFFSET -0.217000 -0.143000 0.039300
								CHANNELS 3 Xrotation Yrotation Zrotation
								JOINT palm.01.R
								{
									OFFSET -0.021773 -0.038278 0.012988
									CHANNELS 6 Xposition Yposition Zposition Yrotation Xrotation Zrotation
									JOINT f_index.01.R
									{
										OFFSET -0.053212 -0.044139 0.008249
										CHANNELS 3 Xrotation Yrotation Zrotation
										JOINT f_index.02.R
										{
											OFFSET -0.036049 -0.024835 -0.010634
											CHANNELS 3 Xrotation Yrotation Zrotation
											JOINT f_index.03.R
											{
												OFFSET -0.021371 -0.014881 -0.010866
												CHANNELS 3 Xrotation Yrotation Zrotation
												End Site
												{
													OFFSET -0.015584 -0.009883 -0.013422
												}
											}
										}
									}
									JOINT thumb.01.R
									{
										OFFSET 0.009113 -0.002381 -0.024211
										CHANNELS 6 Xposition Yposition Zposition Xrotation Yrotation Zrotation
										JOINT thumb.02.R
										{
											OFFSET -0.019694 -0.035097 -0.011088
											CHANNELS 3 Xrotation Yrotation Zrotation
											JOINT thumb.03.R
											{
												OFFSET -0.024867 -0.021762 -0.005168
												CHANNELS 3 Xrotation Yrotation Zrotation
												End Site
												{
													OFFSET -0.016120 -0.013036 -0.001565
												}
											}
										}
									}
								}
								JOINT palm.02.R
								{
									OFFSET -0.032828 -0.025095 0.012286
									CHANNELS 6 Xposition Yposition Zposition Yrotation Xrotation Zrotation
									JOINT f_middle.01.R
									{
										OFFSET -0.055721 -0.038472 0.008040
										CHANNELS 3 Xrotation Yrotation Zrotation
										JOINT f_middle.02.R
										{
											OFFSET -0.038101 -0.027593 -0.015557
											CHANNELS 3 Xrotation Yrotation Zrotation
											JOINT f_middle.03.R
											{
												OFFSET -0.021730 -0.016530 -0.017054
												CHANNELS 3 Xrotation Yrotation Zrotation
												End Site
												{
													OFFSET -0.014096 -0.010608 -0.014293
												}
											}
										}
									}
								}
								JOINT palm.03.R
								{
									OFFSET -0.039192 -0.011488 0.008390
									CHANNELS 6 Xposition Yposition Zposition Yrotation Xrotation Zrotation
									JOINT f_ring.01.R
									{
										OFFSET -0.061839 -0.031387 0.007876
										CHANNELS 3 Xrotation Yrotation Zrotation
										JOINT f_ring.02.R
										{
											OFFSET -0.033068 -0.023437 -0.019125
											CHANNELS 3 Xrotation Yrotation Zrotation
											JOINT f_ring.03.R
											{
												OFFSET -0.021371 -0.015393 -0.017822
												CHANNELS 3 Xrotation Yrotation Zrotation
												End Site
												{
													OFFSET -0.008654 -0.007321 -0.014684
												}
											}
										}
									}
								}
								JOINT palm.04.R
								{
									OFFSET -0.043421 0.002443 0.002845
									CHANNELS 6 Xposition Yposition Zposition Yrotation Xrotation Zrotation
									JOINT f_pinky.01.R
									{
										OFFSET -0.069983 -0.026169 0.003599
										CHANNELS 3 Xrotation Yrotation Zrotation
										JOINT f_pinky.02.R
										{
											OFFSET -0.018501 -0.012842 -0.016428
											CHANNELS 3 Xrotation Yrotation Zrotation
											JOINT f_pinky.03.R
											{
												OFFSET -0.013806 -0.009821 -0.014946
												CHANNELS 3 Xrotation Yrotation Zrotation
												End Site
												{
													OFFSET -0.007226 -0.006121 -0.011655
												}
											}
										}
									}
								}
							}
						}
					}
				}
			}
		}
	}
	JOINT pelvis.L
	{
		OFFSET 0.000000 0.000000 0.000000
		CHANNELS 6 Xposition Yposition Zposition Xrotation Yrotation Zrotation
		JOINT thigh.L
		{
			OFFSET 0.101675 0.001054 -0.000000
			CHANNELS 3 Xrotation Yrotation Zrotation
			JOINT shin.L
			{
				OFFSET 0.000000 -0.534800 0.041000
				CHANNELS 3 Xrotation Yrotation Zrotation
				JOINT foot.L
				{
					OFFSET 0.000000 -0.452000 -0.044800
					CHANNELS 3 Xrotation Yrotation Zrotation
					JOINT toe.L
					{
						OFFSET -0.000000 -0.068500 0.109600
						CHANNELS 3 Xrotation Yrotation Zrotation
						End Site
						{
							OFFSET -0.000000 0.000000 0.067200
						}
					}
				}
				JOINT heel.L
				{
					OFFSET 0.000000 -0.452000 -0.044800
					CHANNELS 3 Xrotation Yrotation Zrotation
					JOINT heel.02.L
					{
						OFFSET -0.038000 -0.085200 0.016200
						CHANNELS 6 Xposition Yposition Zposition Xrotation Yrotation Zrotation
						End Site
						{
							OFFSET 0.080000 -0.000000 0.000000
						}
					}
				}
			}
		}
	}
	JOINT pelvis.R
	{
		OFFSET 0.000000 0.000000 0.000000
		CHANNELS 6 Xposition Yposition Zposition Xrotation Yrotation Zrotation
		JOINT thigh.R
		{
			OFFSET -0.094325 0.001054 0.000000
			CHANNELS 3 Xrotation Yrotation Zrotation
			JOINT shin.R
			{
				OFFSET 0.000000 -0.534800 0.041000
				CHANNELS 3 Xrotation Yrotation Zrotation
				JOINT foot.R
				{
					OFFSET 0.000000 -0.452000 -0.044800
					CHANNELS 3 Xrotation Yrotation Zrotation
					JOINT toe.R
					{
						OFFSET -0.000000 -0.068500 0.109600
						CHANNELS 3 Xrotation Yrotation Zrotation
						End Site
						{
							OFFSET -0.000000 0.000000 0.067200
						}
					}
				}
				JOINT heel.R
				{
					OFFSET 0.000000 -0.452000 -0.044800
					CHANNELS 3 Xrotation Yrotation Zrotation
					JOINT heel.02.R
					{
						OFFSET 0.038000 -0.085200 0.016200
						CHANNELS 6 Xposition Yposition Zposition Xrotation Yrotation Zrotation
						End Site
						{
							OFFSET -0.080000 0.000000 -0.000000
						}
					}
				}
			}
		}
	}
}
MOTION
Frames: 4
Frame Time: 0.041667
-0.005836 0.287101 -0.036836 -1.674094 -8.188344 3.341607 -0.000000 -0.000001 -0.000000 -0.000000 0.000001 0.000000 -0.000000 -0.000001 -0.000000 -0.000000 -0.000001 -0.000000 0.000924 0.155148 0.009274 1.628701 -0.003228 -11.850198 0.019937 0.078966 0.057518 10.547870 -1.604595 22.877727 0.177024 -0.020465 -0.095062 -3.034942 12.666407 -71.570356 -13.047275 -10.771537 -23.054139 -88.705887 44.037822 26.532252 0.021770 -0.038291 0.012954 0.000001 0.000000 0.000004 0.000002 0.000001 -0.000004 0.000002 0.000001 0.000003 0.000000 0.000001 -0.000002 -0.009090 -0.002348 -0.024223 -0.000001 0.000001 -0.000003 0.000000 -0.000002 -0.000000 -0.000001 0.000001 0.000001 0.032823 -0.025104 0.012281 -0.000000 -0.000002 -0.000006 -0.000003 0.000003 0.000001 -0.000001 0.000005 -0.000001 -0.000002 0.000007 -0.000003 0.039230 -0.011402 0.008390 0.000001 -0.000001 0.000001 0.000000 0.000003 -0.000003 -0.000001 -0.000006 0.000005 0.000001 -0.000002 0.000001 0.043417 0.002450 0.002889 -0.000001 0.000001 -0.000002 0.000001 -0.000003 0.000001 -0.000004 0.000000 0.000000 0.000002 -0.000006 0.000001 -0.016662 0.078957 0.057696 4.231924 -2.245767 -28.586235 -0.176972 -0.020537 -0.095144 2.436951 -10.843137 76.341127 -19.806471 11.656175 30.714937 -62.509242 -38.570690 -8.320898 -0.021773 -0.038278 0.012988 -0.000001 0.000002 0.000000 0.000000 -0.000000 0.000004 0.000001 -0.000001 -0.000004 -0.000002 0.000004 -0.000001 0.009114 -0.002381 -0.024211 0.000003 -0.000001 0.000003 -0.000001 0.000003 0.000001 -0.000000 -0.000000 0.000001 -0.032828 -0.025095 0.012286 -0.000001 0.000001 0.000001 -0.000002 0.000000 0.000001 -0.000000 0.000000 -0.000003 -0.000000 0.000008 0.000003 -0.039192 -0.011488 0.008390 0.000000 -0.000000 -0.000004 -0.000003 -0.000003 0.000006 0.000004 -0.000003 0.000002 0.000001 -0.000004 -0.000003 -0.043421 0.002442 0.002845 -0.000002 -0.000000 0.000003 0.000002 -0.000001 -0.000003 -0.000001 0.000000 -0.000000 -0.000003 0.000004 -0.000000 -0.000000 0.000000 -0.000000 -2.805461 10.271968 0.331957 -17.949551 -0.655826 -6.872027 12.289167 -0.427526 4.318201 -0.000002 0.000000 -0.000000 0.000001 -0.000000 -0.000000 -0.000002 -0.000000 0.000000 -0.038000 -0.085200 0.016200 -0.000000 0.000000 0.000000 -0.000000 0.000000 -0.000000 -2.449705 0.800932 -8.055843 -19.362837 1.202356 13.713860 11.834471 1.517544 -15.502993 0.000000 0.000000 -0.000001 0.000001 0.000000 -0.000000 0.000002 0.000000 -0.000000 0.038000 -0.085200 0.016200 0.000001 -0.000000 0.000001 
-0.006020 0.288044 -0.037298 -1.400170 -8.013041 3.125289 -0.000000 0.000000 -0.000000 -0.000000 -0.000000 -0.000000 -0.000000 0.000000 -0.000000 -0.000000 0.000001 0.000000 0.000924 0.155148 0.009274 1.478125 -0.001747 -10.732677 0.019937 0.078966 0.057518 10.543509 -1.004998 22.647452 0.177025 -0.020465 -0.095062 -3.178884 12.484583 -71.580751 -14.790679 -12.023121 -22.827573 -88.705887 44.037826 26.532247 0.021770 -0.038291 0.012954 0.000001 -0.000001 -0.000005 -0.000000 -0.000001 -0.000004 -0.000001 -0.000001 0.000001 0.000002 0.000005 -0.000003 -0.009090 -0.002348 -0.024223 -0.000001 -0.000001 -0.000000 -0.000001 0.000001 -0.000000 -0.000001 0.000001 0.000003 0.032823 -0.025104 0.012281 0.000001 -0.000002 -0.000001 -0.000001 0.000000 -0.000001 -0.000000 -0.000002 -0.000001 -0.000000 -0.000001 0.000001 0.039230 -0.011402 0.008390 -0.000003 -0.000002 0.000002 -0.000003 0.000001 -0.000003 -0.000003 -0.000006 0.000005 0.000007 -0.000002 0.000001 0.043417 0.002450 0.002889 -0.000001 -0.000001 0.000002 -0.000003 0.000002 -0.000001 -0.000002 0.000005 0.000002 0.000001 -0.000007 0.000001 -0.016662 0.078957 0.057696 4.727043 -1.743631 -28.063856 -0.176972 -0.020537 -0.095144 1.714824 -11.029616 75.831144 -20.832538 12.429249 30.777731 -62.509236 -38.570693 -8.320906 -0.021773 -0.038278 0.012988 -0.000003 0.000001 0.000000 0.000001 -0.000002 -0.000001 0.000002 0.000001 -0.000011 -0.000004 0.000004 0.000002 0.009113 -0.002381 -0.024211 -0.000000 0.000001 0.000000 -0.000000 0.000004 -0.000005 -0.000003 -0.000000 0.000003 -0.032828 -0.025095 0.012286 -0.000005 0.000002 0.000001 -0.000002 -0.000000 0.000003 -0.000000 0.000002 -0.000003 -0.000000 0.000001 -0.000000 -0.039192 -0.011488 0.008390 -0.000002 0.000001 0.000001 0.000002 -0.000001 -0.000004 0.000002 -0.000001 0.000002 0.000000 -0.000003 0.000002 -0.043421 0.002443 0.002845 -0.000003 0.000001 0.000000 0.000000 -0.000003 -0.000001 -0.000004 -0.000003 0.000002 -0.000001 -0.000003 0.000001 -0.000000 0.000000 -0.000000 -2.643411 9.948320 0.092513 -18.421934 -0.624050 -6.440225 12.288349 -0.427979 4.322809 0.000000 -0.000000 0.000000 -0.000000 0.000000 0.000000 -0.000002 -0.000000 0.000000 -0.038000 -0.085200 0.016200 0.000001 0.000000 -0.000000 -0.000000 -0.000000 0.000000 -2.311818 0.720109 -7.427768 -19.863995 1.165384 13.200809 12.185970 1.507059 -15.393131 0.000002 -0.000000 0.000000 -0.000002 -0.000000 0.000000 0.000000 0.000000 0.000001 0.038000 -0.085200 0.016200 -0.000003 0.000000 0.000000 
-0.006481 0.295454 -0.035836 -1.351713 -8.538326 2.900356 -0.000000 -0.000000 0.000000 -0.000000 -0.000001 0.000000 -0.000000 -0.000001 0.000000 0.000000 0.000000 0.000000 0.000924 0.155148 0.009274 1.484261 -0.000809 -9.703826 0.019937 0.078966 0.057518 11.326046 -0.879231 22.055371 0.177024 -0.020465 -0.095062 -2.793010 12.300654 -71.103506 -16.187709 -12.964222 -22.846414 -88.705887 44.037829 26.532259 0.021770 -0.038291 0.012954 -0.000002 0.000002 -0.000004 0.000001 -0.000001 -0.000001 0.000004 0.000001 0.000003 -0.000001 0.000001 -0.000004 -0.009090 -0.002348 -0.024223 -0.000000 0.000000 0.000001 -0.000002 0.000001 -0.000000 -0.000001 0.000003 0.000003 0.032823 -0.025104 0.012281 -0.000004 -0.000003 -0.000001 -0.000003 -0.000002 0.000001 -0.000003 0.000004 -0.000000 -0.000001 -0.000001 -0.000004 0.039230 -0.011402 0.008390 -0.000003 0.000000 0.000002 -0.000001 0.000001 -0.000005 -0.000000 -0.000001 -0.000000 0.000004 0.000003 0.000003 0.043417 0.002450 0.002889 -0.000003 0.000000 0.000003 0.000001 -0.000005 0.000001 0.000000 -0.000002 0.000001 -0.000001 -0.000004 0.000000 -0.016662 0.078957 0.057696 5.669124 -1.921742 -27.438342 -0.176972 -0.020537 -0.095144 1.893431 -11.227403 75.097705 -21.494346 12.854533 31.125824 -62.509236 -38.570700 -8.320898 -0.021773 -0.038278 0.012988 0.000002 0.000001 0.000002 0.000003 -0.000000 -0.000001 0.000002 -0.000003 -0.000006 0.000003 0.000003 0.000006 0.009113 -0.002381 -0.024211 0.000004 -0.000002 -0.000002 0.000001 -0.000001 -0.000000 -0.000001 0.000000 -0.000002 -0.032828 -0.025095 0.012286 -0.000000 0.000001 0.000001 0.000003 0.000002 0.000004 -0.000000 0.000001 0.000002 -0.000000 0.000001 -0.000003 -0.039192 -0.011488 0.008390 0.000000 -0.000000 0.000003 0.000005 -0.000000 -0.000002 0.000001 -0.000000 0.000003 0.000003 -0.000002 0.000001 -0.043421 0.002443 0.002845 0.000000 0.000001 0.000000 0.000003 -0.000009 0.000002 -0.000002 -0.000003 0.000001 0.000002 0.000005 -0.000000 -0.000000 0.000000 0.000000 -2.649436 11.292662 -2.643738 -18.265775 -0.438030 -4.013160 12.147322 -0.499674 5.048635 -0.000003 -0.000000 0.000000 0.000001 0.000000 0.000000 0.000002 -0.000000 0.000000 -0.038000 -0.085200 0.016200 0.000001 0.000000 0.000000 -0.000000 0.000000 0.000000 -2.292630 0.415068 -4.200384 -19.662998 0.977180 10.717917 12.086783 1.566110 -16.012463 0.000003 -0.000000 0.000001 0.000002 0.000000 0.000001 0.000003 0.000000 0.000001 0.038000 -0.085200 0.016200 0.000001 0.000001 0.000002 
-0.006638 0.294884 -0.035102 -1.274237 -8.843872 2.681818 -0.000000 0.000001 0.000000 -0.000001 -0.000001 0.000001 -0.000000 0.000002 -0.000000 0.000000 0.000001 -0.000000 0.000924 0.155147 0.009274 1.518552 -0.000173 -8.716888 0.019937 0.078966 0.057518 11.668475 -0.143693 21.972946 0.177024 -0.020465 -0.095062 -3.008917 12.074937 -71.186786 -17.459427 -14.002757 -22.523426 -88.705893 44.037822 26.532251 0.021770 -0.038291 0.012954 -0.000001 0.000005 0.000001 -0.000001 -0.000001 0.000001 0.000003 -0.000003 -0.000003 -0.000001 0.000001 -0.000002 -0.009090 -0.002348 -0.024223 -0.000004 -0.000001 0.000001 0.000000 -0.000003 -0.000004 -0.000001 0.000001 -0.000002 0.032823 -0.025104 0.012281 -0.000000 0.000003 0.000001 -0.000001 0.000004 0.000003 -0.000001 0.000006 -0.000002 -0.000003 -0.000001 -0.000004 0.039230 -0.011402 0.008390 0.000000 0.000002 0.000002 0.000001 0.000003 -0.000005 -0.000003 0.000000 0.000007 0.000003 -0.000000 -0.000000 0.043417 0.002450 0.002889 -0.000003 0.000002 0.000003 -0.000002 0.000002 -0.000001 -0.000001 0.000004 -0.000000 -0.000002 -0.000008 0.000000 -0.016662 0.078957 0.057696 6.457408 -1.361825 -27.130283 -0.176972 -0.020537 -0.095144 1.374044 -11.326043 74.797422 -22.232507 13.530670 31.014004 -62.509236 -38.570686 -8.320902 -0.021773 -0.038278 0.012988 0.000000 0.000002 0.000007 0.000000 0.000002 -0.000003 0.000002 0.000001 -0.000004 -0.000001 0.000003 0.000004 0.009114 -0.002381 -0.024211 0.000004 -0.000000 -0.000002 0.000000 0.000002 -0.000002 0.000001 0.000001 -0.000001 -0.032828 -0.025095 0.012286 -0.000001 0.000002 0.000006 -0.000002 0.000000 0.000001 -0.000000 0.000003 -0.000001 -0.000000 0.000003 -0.000001 -0.039192 -0.011488 0.008390 0.000002 0.000003 0.000005 0.000004 0.000004 0.000001 0.000001 -0.000004 0.000005 0.000001 -0.000006 -0.000003 -0.043421 0.002443 0.002845 0.000002 0.000001 0.000009 -0.000000 0.000000 0.000001 0.000000 0.000000 0.000003 -0.000000 -0.000002 -0.000003 -0.000000 0.000000 -0.000000 -2.511742 11.861406 -2.190087 -18.489250 -0.463933 -4.355539 12.134547 -0.505638 5.109066 -0.000002 0.000000 0.000000 -0.000004 0.000000 0.000000 -0.000002 -0.000000 0.000000 -0.038000 -0.085200 0.016200 -0.000002 0.000000 -0.000000 -0.000000 0.000000 0.000000 -2.152853 0.404242 -4.212546 -20.019544 0.996249 10.965484 12.489933 1.559511 -15.943151 0.000002 0.000001 -0.000000 0.000001 -0.000000 -0.000000 0.000003 -0.000000 -0.000001 0.038000 -0.085200 0.016200 0.000005 0.000001 -0.000001 
